<svg width="800" height="800" viewBox="0 0 800 800" fill="none" xmlns="http://www.w3.org/2000/svg">
<path d="M352.553 290.139C373.663 252.268 384.22 233.333 400 233.333C415.78 233.333 426.337 252.268 447.447 290.139L452.91 299.937C458.907 310.699 461.907 316.079 466.583 319.63C471.26 323.18 477.087 324.498 488.737 327.134L499.34 329.533C540.337 338.81 560.833 343.446 565.71 359.13C570.587 374.81 556.613 391.15 528.667 423.833L521.433 432.286C513.493 441.573 509.523 446.216 507.737 451.963C505.95 457.706 506.55 463.903 507.75 476.293L508.843 487.573C513.07 531.176 515.18 552.98 502.413 562.67C489.647 572.363 470.457 563.526 432.073 545.853L422.143 541.28C411.233 536.26 405.78 533.746 400 533.746C394.22 533.746 388.767 536.26 377.857 541.28L367.927 545.853C329.545 563.526 310.353 572.363 297.586 562.67C284.819 552.98 286.931 531.176 291.157 487.573L292.25 476.293C293.45 463.903 294.051 457.706 292.264 451.963C290.478 446.216 286.507 441.573 278.565 432.286L271.335 423.833C243.387 391.15 229.414 374.81 234.29 359.13C239.167 343.446 259.664 338.81 300.659 329.533L311.265 327.134C322.914 324.498 328.739 323.18 333.417 319.63C338.093 316.079 341.093 310.699 347.09 299.937L352.553 290.139Z" fill="url(#paint0_linear_373_29)"/>
<path fill-rule="evenodd" clip-rule="evenodd" d="M400 41.667C413.807 41.667 425 52.86 425 66.667V133.334C425 147.141 413.807 158.334 400 158.334C386.193 158.334 375 147.141 375 133.334V66.667C375 52.86 386.193 41.667 400 41.667ZM617.68 182.319C627.443 192.082 627.443 207.911 617.68 217.674L606.24 229.116C596.477 238.879 580.647 238.879 570.883 229.116C561.12 219.353 561.12 203.524 570.883 193.761L582.327 182.319C592.09 172.556 607.92 172.556 617.68 182.319ZM182.322 182.323C192.085 172.56 207.915 172.56 217.678 182.323L229.12 193.765C238.883 203.528 238.883 219.357 229.12 229.12C219.357 238.883 203.527 238.883 193.764 229.12L182.322 217.678C172.559 207.915 172.559 192.086 182.322 182.323ZM41.6666 400C41.6666 386.194 52.8596 375 66.6666 375H133.333C147.14 375 158.333 386.194 158.333 400C158.333 413.807 147.14 425 133.333 425H66.6666C52.8596 425 41.6666 413.807 41.6666 400ZM641.667 400C641.667 386.194 652.86 375 666.667 375H733.333C747.14 375 758.333 386.194 758.333 400C758.333 413.807 747.14 425 733.333 425H666.667C652.86 425 641.667 413.807 641.667 400ZM229.116 570.884C238.879 580.647 238.879 596.477 229.116 606.24L217.681 617.674C207.918 627.437 192.089 627.437 182.326 617.674C172.563 607.91 172.563 592.084 182.326 582.32L193.761 570.884C203.524 561.12 219.353 561.12 229.116 570.884ZM570.883 570.89C580.647 561.13 596.477 561.13 606.24 570.89L617.673 582.327C627.437 592.09 627.437 607.92 617.673 617.684C607.91 627.444 592.08 627.444 582.317 617.684L570.883 606.247C561.12 596.484 561.12 580.654 570.883 570.89ZM400 641.667C413.807 641.667 425 652.86 425 666.667V733.334C425 747.14 413.807 758.334 400 758.334C386.193 758.334 375 747.14 375 733.334V666.667C375 652.86 386.193 641.667 400 641.667Z" fill="url(#paint1_linear_373_29)"/>
<defs>
<linearGradient id="paint0_linear_373_29" x1="400" y1="233.333" x2="400" y2="566.667" gradientUnits="userSpaceOnUse">
<stop stop-color="#65E4A9"/>
<stop offset="1" stop-color="#058448"/>
</linearGradient>
<linearGradient id="paint1_linear_373_29" x1="400" y1="41.667" x2="400" y2="758.334" gradientUnits="userSpaceOnUse">
<stop stop-color="#65E4A9"/>
<stop offset="1" stop-color="#058448"/>
</linearGradient>
</defs>
</svg>