<svg width="800" height="800" viewBox="0 0 800 800" fill="none" xmlns="http://www.w3.org/2000/svg">
<g clip-path="url(#clip0_373_38)">
<path fill-rule="evenodd" clip-rule="evenodd" d="M278.711 449.706L114.209 614.209L50 550C43.4328 549.996 36.9293 551.287 30.8612 553.798C24.7932 556.309 19.2797 559.992 14.636 564.636C9.99226 569.28 6.30944 574.793 3.79808 580.861C1.28673 586.929 -0.00389392 593.433 8.82477e-06 600V750C-0.00389392 756.567 1.28673 763.071 3.79808 769.139C6.30944 775.207 9.99226 780.72 14.636 785.364C19.2797 790.008 24.7932 793.691 30.8612 796.202C36.9293 798.713 43.4328 800.004 50 800H200C206.567 800.004 213.071 798.713 219.139 796.202C225.207 793.691 230.72 790.008 235.364 785.364C240.008 780.72 243.691 775.207 246.202 769.139C248.713 763.071 250.004 756.567 250 750L185.791 685.841L350.292 521.291L278.711 449.706ZM750 1.97883e-06H600C593.433 -0.00184566 586.931 1.29018 580.864 3.80226C574.797 6.31434 569.284 9.99724 564.641 14.6405C559.997 19.2838 556.314 24.7965 553.802 30.8636C551.29 36.9308 549.998 43.4334 550 50L614.209 114.209L449.706 278.711L521.287 350.292L685.789 185.814L750 250C756.567 250.004 763.071 248.713 769.139 246.202C775.207 243.691 780.72 240.008 785.364 235.364C790.008 230.72 793.691 225.207 796.202 219.139C798.713 213.071 800.004 206.567 800 200V50C800.002 43.4334 798.71 36.9308 796.198 30.8636C793.686 24.7965 790.003 19.2838 785.359 14.6405C780.716 9.99724 775.203 6.31434 769.136 3.80226C763.069 1.29018 756.567 -0.00184566 750 1.97883e-06ZM750 550L685.791 614.209L521.289 449.706L449.708 521.287L614.209 685.838L550 750C549.996 756.567 551.287 763.071 553.798 769.139C556.309 775.207 559.992 780.72 564.636 785.364C569.28 790.008 574.793 793.691 580.861 796.202C586.929 798.713 593.433 800.004 600 800H750C756.567 800.004 763.071 798.713 769.139 796.202C775.207 793.691 780.72 790.008 785.364 785.364C790.008 780.72 793.691 775.207 796.202 769.139C798.713 763.071 800.004 756.567 800 750V600C800.004 593.433 798.713 586.929 796.202 580.861C793.691 574.793 790.008 569.28 785.364 564.636C780.72 559.992 775.207 556.309 769.139 553.798C763.071 551.287 756.567 549.996 750 550ZM250 50C250.002 43.4334 248.71 36.9308 246.198 30.8636C243.686 24.7965 240.003 19.2838 235.359 14.6405C230.716 9.99724 225.203 6.31434 219.136 3.80226C213.069 1.29018 206.567 -0.00184566 200 1.97883e-06H50C43.4334 -0.00184566 36.9308 1.29018 30.8637 3.80226C24.7965 6.31434 19.2838 9.99724 14.6405 14.6405C9.99725 19.2838 6.31435 24.7965 3.80227 30.8636C1.29019 36.9308 -0.00183881 43.4334 8.82477e-06 50V200C-0.00389392 206.567 1.28673 213.071 3.79808 219.139C6.30944 225.207 9.99226 230.72 14.636 235.364C19.2797 240.008 24.7932 243.691 30.8612 246.202C36.9293 248.713 43.4328 250.004 50 250L114.209 185.816L278.711 350.294L350.292 278.713L185.791 114.209L250 50Z" fill="url(#paint0_linear_373_38)"/>
</g>
<defs>
<linearGradient id="paint0_linear_373_38" x1="400" y1="0" x2="400" y2="800" gradientUnits="userSpaceOnUse">
<stop stop-color="#65E4A9"/>
<stop offset="1" stop-color="#058448"/>
</linearGradient>
<clipPath id="clip0_373_38">
<rect width="800" height="800" fill="white"/>
</clipPath>
</defs>
</svg>