<svg width="800" height="800" viewBox="0 0 800 800" fill="none" xmlns="http://www.w3.org/2000/svg">
<path fill-rule="evenodd" clip-rule="evenodd" d="M401.733 41.667H398.267C368.317 41.666 343.343 41.6654 323.517 44.3307C302.591 47.1444 283.698 53.3334 268.515 68.5157C253.333 83.698 247.144 102.591 244.33 123.518C242.42 137.73 241.879 171.716 241.726 200.856C174.318 203.057 133.845 210.926 105.719 239.053C66.6667 278.105 66.6667 340.96 66.6667 466.667C66.6667 592.374 66.6667 655.23 105.719 694.28C144.771 733.334 207.625 733.334 333.333 733.334H466.667C592.373 733.334 655.23 733.334 694.28 694.28C733.333 655.23 733.333 592.374 733.333 466.667C733.333 340.96 733.333 278.105 694.28 239.053C666.153 210.926 625.683 203.057 558.273 200.856C558.12 171.716 557.58 137.73 555.67 123.518C552.857 102.591 546.667 83.698 531.483 68.5157C516.303 53.3334 497.41 47.1444 476.483 44.3307C456.657 41.6654 431.683 41.666 401.733 41.667ZM508.263 200.063C508.113 171.841 507.633 141.469 506.117 130.18C504.047 114.798 500.473 108.215 496.13 103.871C491.787 99.527 485.203 95.953 469.82 93.885C453.72 91.7204 432.133 91.667 400 91.667C367.867 91.667 346.28 91.7204 330.18 93.885C314.798 95.953 308.215 99.527 303.871 103.871C299.527 108.215 295.953 114.798 293.885 130.18C292.367 141.469 291.887 171.841 291.736 200.063C304.783 200 318.628 200 333.333 200H466.667C481.373 200 495.217 200 508.263 200.063ZM400 308.334C413.807 308.334 425 319.527 425 333.334V333.674C461.293 342.817 491.667 371.434 491.667 411.11C491.667 424.917 480.473 436.11 466.667 436.11C452.86 436.11 441.667 424.917 441.667 411.11C441.667 398.31 427.473 380.557 400 380.557C372.527 380.557 358.333 398.31 358.333 411.11C358.333 423.914 372.527 441.667 400 441.667C446.163 441.667 491.667 473.66 491.667 522.224C491.667 561.9 461.293 590.517 425 599.66V600C425 613.807 413.807 625 400 625C386.193 625 375 613.807 375 600V599.66C338.707 590.517 308.333 561.9 308.333 522.224C308.333 508.417 319.526 497.224 333.333 497.224C347.14 497.224 358.333 508.417 358.333 522.224C358.333 535.024 372.527 552.777 400 552.777C427.473 552.777 441.667 535.024 441.667 522.224C441.667 509.42 427.473 491.667 400 491.667C353.837 491.667 308.333 459.677 308.333 411.11C308.333 371.434 338.707 342.817 375 333.674V333.334C375 319.527 386.193 308.334 400 308.334Z" fill="url(#paint0_linear_373_32)"/>
<defs>
<linearGradient id="paint0_linear_373_32" x1="400" y1="41.667" x2="400" y2="733.334" gradientUnits="userSpaceOnUse">
<stop stop-color="#65E4A9"/>
<stop offset="1" stop-color="#058448"/>
</linearGradient>
</defs>
</svg>
