<svg width="181" height="148" viewBox="0 0 181 148" fill="none" xmlns="http://www.w3.org/2000/svg">
<path d="M93.7264 81.5132C94.0571 75.6181 96.9391 70.4092 101.306 66.7287C105.579 63.1105 111.318 60.896 117.619 60.896C123.888 60.896 129.627 63.1074 133.9 66.7287C138.267 70.4092 141.137 75.6181 141.48 81.5132C141.81 87.5643 139.374 93.2098 135.117 97.3894C130.75 101.631 124.574 104.314 117.619 104.314C110.663 104.314 104.456 101.65 100.121 97.3894C95.8474 93.2098 93.4145 87.5955 93.7576 81.5444L93.7264 81.5132Z" fill="#D6209F"/>
<path d="M56.2971 93.9898C56.3377 96.2979 57.0738 100.789 58.1779 104.283C60.4985 111.706 64.4473 118.568 69.9058 124.588C75.5201 130.795 82.4445 135.786 90.4294 139.341C98.8198 143.053 107.928 144.956 117.378 144.956C126.829 144.943 135.937 143.01 144.327 139.248C152.312 135.661 159.237 130.67 164.851 124.432C170.341 118.35 174.271 111.488 176.579 104.064C177.749 100.322 178.488 96.5162 178.784 92.7109C179.074 88.968 178.953 85.1939 178.419 81.4198C177.378 74.0899 174.832 67.1967 170.933 60.9585C167.378 55.1882 162.761 50.1664 157.272 45.9244L157.284 45.9151L102.076 3.4953C102.026 3.45787 101.986 3.41729 101.933 3.38298C98.3145 0.600743 92.2011 0.610116 88.2398 3.39859C84.2162 6.21826 83.7483 10.8844 87.3353 13.8164L87.3197 13.832L110.37 32.5778L40.1901 32.6526H40.0965C34.295 32.6589 28.7118 36.458 27.6201 41.2926C26.4848 46.1896 30.4273 50.2755 36.4783 50.2755L36.469 50.2974L72.0267 50.2288L8.39712 98.8868C8.31602 98.946 8.22868 99.0084 8.15382 99.0676C2.16514 103.653 0.231297 111.295 4.00541 116.098C7.8419 120.995 15.9827 121.026 22.0338 116.126L56.6558 87.7422C56.6558 87.7422 56.1505 91.5787 56.1911 93.8556L56.2971 93.9898ZM145.503 106.809C138.361 114.077 128.348 118.225 117.556 118.225C106.733 118.244 96.7207 114.17 89.5779 106.903C86.0845 103.347 83.5269 99.2922 81.9361 94.9567C80.3859 90.6835 79.784 86.1608 80.1832 81.6069C80.5606 77.1466 81.8893 72.8735 84.0197 69.037C86.1032 65.2628 88.9791 61.8319 92.5036 58.9311C99.4592 53.2855 108.286 50.1976 117.519 50.1976C126.783 50.1851 135.61 53.22 142.565 58.8687C146.09 61.7507 148.959 65.1693 151.049 68.9434C153.179 72.7799 154.511 77.0219 154.886 81.5134C155.279 86.0672 154.677 90.5899 153.126 94.8631C151.542 99.2298 148.978 103.285 145.485 106.84L145.503 106.809Z" fill="#D6209F"/>
</svg>
